<?xml version="1.0" standalone="no"?>
<!DOCTYPE svg PUBLIC "-//W3C//DTD SVG 20010904//en"
 "http://www.w3.org/TR/2001/REC-SVG-20010904/DTD/svg10.dtd">
<svg version="1.0" xmlns="http://www.w3.org/2000/svg"
 width="1079.000000pt" height="1079.000000pt" viewBox="0 0 1079.000000 1079.000000"
 preserveAspectRatio="xMidYMid meet">

<g transform="translate(0.000000,1079.000000) scale(0.100000,-0.100000)"
fill="#000000" stroke="none">
<path d="M0 10020 l0 -770 48 1 c26 0 166 4 312 8 146 4 288 5 315 1 49 -6 95
5 95 22 0 4 7 8 15 8 8 0 15 -9 15 -20 0 -17 7 -20 40 -20 22 0 40 5 40 10 0
6 -16 10 -35 10 -33 0 -35 2 -35 35 0 24 -6 39 -20 47 -17 11 -20 24 -20 85 0
58 3 73 15 73 8 0 15 7 15 15 0 11 11 15 40 15 36 0 40 3 40 25 0 20 5 25 25
25 23 0 25 4 25 40 l0 40 -107 0 c-58 0 -104 2 -101 5 3 3 218 8 479 11 559 6
459 6 1049 1 261 -3 576 -5 698 -6 174 -1 223 -4 220 -13 -3 -7 -14 -14 -26
-16 -12 -2 -22 -7 -22 -12 0 -5 -8 -11 -17 -14 -10 -3 -29 -16 -43 -29 -41
-37 -87 -67 -104 -67 -9 0 -16 -4 -16 -10 0 -5 -7 -10 -15 -10 -7 0 -18 -6
-22 -14 -4 -7 -19 -19 -33 -26 -14 -7 -46 -31 -71 -52 -25 -21 -52 -38 -60
-38 -8 0 -25 -10 -39 -22 -14 -13 -37 -29 -52 -37 -15 -8 -37 -22 -47 -33 -12
-10 -37 -19 -58 -19 -23 -1 -29 -3 -15 -6 12 -2 22 -7 22 -11 0 -4 -44 -36
-98 -72 -53 -35 -99 -67 -102 -70 -3 -3 -19 -13 -35 -22 -34 -18 -148 -21
-817 -19 -310 1 -385 -4 -335 -22 6 -2 250 -2 541 1 439 4 528 3 524 -9 -2 -7
-42 -39 -89 -71 l-84 -58 -365 4 c-391 3 -560 -1 -538 -16 7 -5 198 -6 436 -2
320 5 422 4 422 -5 0 -6 -21 -24 -46 -39 -26 -15 -51 -32 -58 -38 -6 -5 -18
-13 -27 -16 -21 -8 -24 -43 -28 -255 l-3 -161 79 -26 c43 -14 130 -44 193 -67
63 -22 197 -69 298 -104 100 -35 188 -67 195 -72 16 -12 129 -57 192 -76 28
-9 111 -36 185 -60 l135 -44 -1 -39 c-2 -112 -16 -369 -20 -373 -2 -3 -12 5
-20 18 -23 32 -61 44 -95 31 -25 -11 -39 -31 -53 -73 -5 -15 -12 -17 -38 -12
-69 13 -88 26 -88 56 0 29 -22 40 -35 19 -3 -5 2 -10 12 -10 15 0 16 -2 3 -10
-13 -9 -13 -11 0 -20 17 -12 -48 -3 -88 11 -13 5 -47 9 -75 10 -29 0 -86 7
-127 15 -156 30 -324 46 -410 39 -93 -7 -293 -40 -311 -50 -7 -5 -9 -102 -5
-331 4 -271 2 -326 -9 -338 -13 -12 -12 -15 1 -20 11 -4 12 -10 5 -24 -11 -20
-9 -66 15 -437 5 -89 17 -189 39 -345 8 -58 16 -112 16 -120 3 -44 51 -303 65
-355 9 -33 16 -68 16 -78 -1 -10 4 -15 10 -11 8 5 9 1 5 -10 -4 -9 -3 -24 2
-34 5 -9 23 -46 40 -82 17 -36 45 -89 61 -119 17 -30 27 -58 22 -63 -5 -5 -30
0 -56 12 -26 11 -53 20 -60 20 -18 0 -197 72 -226 92 -14 9 -37 22 -52 29 -38
20 -118 97 -118 115 0 7 -4 14 -9 14 -12 0 -26 62 -45 200 -9 63 -21 142 -26
175 -5 33 -12 98 -16 145 -4 47 -9 105 -11 130 -20 214 -27 551 -14 700 26
309 33 374 51 509 11 79 18 146 16 148 -2 3 -49 -9 -103 -26 -54 -17 -102 -31
-107 -31 -4 0 2 12 13 26 27 35 27 88 0 115 -17 17 -29 20 -62 16 -49 -7 -67
-28 -67 -77 0 -43 24 -69 72 -79 31 -7 25 -10 -77 -45 -60 -21 -128 -41 -150
-45 -22 -5 -64 -18 -92 -29 -29 -12 -53 -20 -53 -17 0 3 -24 -8 -53 -24 -28
-15 -79 -38 -112 -50 -33 -12 -69 -25 -80 -30 -11 -5 -35 -14 -52 -21 -42 -16
-42 -26 0 -34 25 -5 42 -18 64 -49 45 -62 65 -105 53 -112 -17 -10 -113 6
-143 23 -53 32 -70 108 -28 131 24 14 5 26 -22 13 -12 -6 -43 -18 -69 -28 -26
-9 -53 -23 -59 -30 -6 -8 -20 -14 -31 -14 -10 0 -16 -4 -13 -10 3 -5 0 -7 -8
-4 -8 3 -18 1 -22 -5 -3 -6 -19 -11 -35 -11 -30 0 -46 -5 -135 -45 -27 -12
-67 -28 -88 -34 -37 -13 -37 -13 -37 -68 l0 -56 28 39 c16 21 36 45 46 53 16
13 83 18 94 6 12 -12 -23 -92 -53 -122 -25 -25 -42 -33 -69 -33 -26 0 -36 4
-36 16 0 10 7 14 17 11 39 -8 96 37 108 86 12 46 -31 35 -87 -23 l-48 -50 0
-2305 c0 -1268 3 -2305 7 -2305 3 0 14 6 22 13 19 16 228 147 234 147 3 0 36
19 73 42 38 23 112 61 164 86 52 24 127 59 165 77 67 32 248 103 420 165 175
63 665 190 733 190 11 0 28 7 36 16 9 8 19 13 23 11 16 -9 53 13 52 30 -1 17
-2 17 -6 1 -2 -10 -11 -18 -18 -18 -9 0 -12 6 -9 15 4 8 1 15 -5 15 -6 0 -11
-7 -11 -15 0 -19 -4 -19 -40 0 -17 9 -30 22 -30 29 0 8 -18 38 -40 67 -22 30
-50 74 -61 99 -44 96 -68 135 -86 139 -33 6 -45 23 -40 58 4 25 -4 55 -37 125
-24 51 -51 124 -60 162 -17 70 -28 96 -86 200 -29 51 -33 69 -34 130 -1 87 28
144 98 194 53 38 144 72 193 72 19 0 43 4 53 10 22 12 50 3 50 -16 0 -7 12
-22 27 -31 65 -42 126 -120 183 -233 32 -65 136 -241 170 -291 18 -25 72 -124
132 -239 16 -30 38 -82 49 -115 11 -33 25 -67 29 -76 5 -9 12 -34 16 -55 4
-21 16 -46 28 -56 l21 -17 -27 -1 c-18 0 -29 -7 -33 -20 -8 -25 -16 -25 -43 0
l-22 20 -20 -20 c-23 -23 -48 -34 -101 -44 l-36 -6 -6 42 c-6 48 -27 68 -71
68 l-31 1 34 27 c19 15 59 41 89 58 66 36 81 56 63 78 -23 27 -87 20 -167 -20
-83 -41 -126 -84 -147 -145 -16 -47 -11 -57 46 -94 21 -14 25 -20 15 -26 -10
-7 -10 -9 0 -9 17 0 15 -37 -3 -44 -8 -3 -15 -15 -15 -26 0 -19 4 -20 58 -15
119 12 294 35 300 39 16 9 328 19 590 18 181 -1 282 2 282 9 0 5 12 8 27 7 19
-2 28 2 31 15 4 20 -23 24 -32 5 -3 -7 -3 -3 -1 9 7 25 -10 40 -19 18 -9 -24
-23 -17 -36 17 -7 18 -19 48 -27 67 -8 18 -37 99 -64 179 -52 152 -55 181 -28
269 17 53 103 71 150 30 35 -31 84 -141 115 -262 16 -65 119 -326 141 -361 12
-19 30 -23 146 -35 73 -7 139 -12 147 -11 59 5 80 8 86 15 4 4 -3 7 -15 7 -21
0 -22 3 -18 63 3 34 18 118 35 187 35 146 54 251 83 448 21 147 29 176 62 225
16 23 25 27 67 27 130 0 140 -49 94 -435 -14 -121 -38 -303 -53 -404 -18 -123
-24 -184 -17 -186 6 -2 74 -15 151 -29 147 -27 328 -69 455 -105 78 -21 120
-26 120 -13 0 4 -9 18 -20 32 -11 14 -20 30 -20 35 0 6 -9 28 -19 49 -11 20
-24 49 -30 64 -6 15 -15 34 -20 42 -16 26 -51 109 -51 122 0 6 -7 19 -16 29
-8 9 -16 27 -18 40 -1 13 -7 35 -13 49 -21 51 -45 126 -54 166 -4 23 -29 104
-54 179 -25 76 -42 141 -38 146 4 4 53 26 108 49 55 23 114 47 130 55 17 7 40
16 51 19 28 8 61 84 79 181 21 111 28 413 11 508 -7 43 -17 82 -22 86 -5 5
-85 61 -179 127 -325 226 -428 328 -611 608 -62 96 -124 265 -148 406 -23 137
-22 376 3 455 60 186 170 397 294 558 85 113 133 165 235 256 114 103 91 102
482 17 41 -9 86 -14 100 -11 49 13 79 71 60 119 -11 31 -51 43 -182 55 -107
11 -198 29 -198 40 0 5 28 30 62 57 90 71 326 304 380 377 25 34 65 98 88 142
23 44 47 85 54 92 14 15 376 33 681 33 l220 0 26 -43 c15 -23 45 -80 69 -127
23 -47 77 -138 119 -202 42 -65 101 -159 131 -209 30 -51 65 -107 78 -127 13
-19 22 -36 20 -37 -2 -2 -37 3 -78 11 -211 39 -218 39 -361 16 -74 -12 -174
-26 -224 -32 -49 -6 -95 -16 -102 -21 -37 -31 -17 -119 33 -141 25 -12 67 -5
322 53 97 22 254 25 396 8 l94 -12 30 -51 c92 -153 192 -401 222 -551 6 -33
16 -78 20 -100 21 -97 40 -263 50 -429 13 -235 11 -244 -117 -531 -47 -105
-141 -264 -187 -314 -44 -49 -285 -250 -381 -318 -55 -39 -135 -90 -178 -113
-53 -29 -82 -51 -88 -68 -16 -41 -28 -332 -19 -439 14 -155 47 -290 80 -323
10 -10 50 -27 91 -40 41 -12 112 -38 159 -57 47 -20 102 -42 123 -51 20 -8 37
-18 37 -22 0 -18 -23 -70 -31 -70 -5 0 -9 -9 -9 -20 0 -11 -4 -20 -10 -20 -5
0 -10 -8 -10 -19 0 -10 -7 -24 -15 -31 -8 -7 -15 -17 -15 -22 0 -5 -7 -25 -17
-46 -9 -20 -15 -43 -14 -49 1 -7 -4 -10 -12 -7 -10 4 -17 -5 -21 -31 -4 -20
-15 -44 -25 -54 -21 -21 -35 -51 -32 -69 1 -8 -2 -19 -7 -25 -16 -19 -92 -167
-86 -167 3 0 -2 -12 -10 -27 -9 -16 -22 -45 -30 -65 -8 -21 -20 -38 -25 -38
-6 0 -11 -9 -11 -19 0 -11 -5 -23 -10 -26 -6 -3 -10 -15 -10 -26 0 -11 -7 -22
-15 -25 -8 -4 -15 -12 -15 -20 0 -7 -13 -43 -30 -78 -16 -36 -36 -80 -44 -98
-8 -18 -21 -44 -29 -58 -44 -75 -78 -153 -71 -160 15 -15 522 -140 565 -140 4
0 16 16 28 35 11 20 40 48 65 63 43 27 43 27 49 97 6 74 40 167 98 272 32 58
89 132 89 115 0 -16 38 -21 44 -7 4 11 11 11 36 2 29 -11 34 -10 52 12 14 18
21 22 27 12 6 -9 11 -8 22 5 11 14 25 15 87 10 174 -16 308 -91 400 -223 l22
-32 -21 -58 c-12 -32 -25 -62 -30 -68 -5 -5 -9 -17 -9 -27 0 -10 -4 -18 -10
-18 -5 0 -10 -10 -10 -22 0 -17 -3 -19 -9 -10 -7 11 -9 11 -14 -2 -4 -9 -14
-16 -24 -17 -16 0 -16 -1 2 -9 11 -5 14 -9 8 -9 -21 -1 -123 -118 -123 -140 0
-6 -7 -11 -16 -11 -8 0 -13 -4 -10 -9 3 -5 -3 -11 -14 -14 -11 -3 -20 -2 -20
3 0 4 -12 10 -27 13 -20 4 -33 1 -44 -13 -18 -21 -31 -17 -22 6 6 16 -5 18
-26 5 -11 -7 -9 -13 8 -30 23 -23 46 -27 57 -10 4 8 8 8 13 0 23 -37 644 -65
946 -41 667 52 1152 159 1739 385 65 25 165 68 221 95 57 28 105 50 108 50 7
0 172 93 314 177 90 53 218 140 301 205 l42 33 0 3852 0 3853 -5395 0 -5395 0
0 -770z m8389 -566 c72 -4 113 -11 130 -22 14 -10 59 -28 101 -42 47 -16 75
-30 75 -39 0 -8 22 -26 50 -39 27 -14 66 -40 85 -59 19 -18 38 -33 43 -33 4 0
7 -11 7 -25 0 -16 12 -36 33 -55 l32 -29 -25 -1 c-24 0 -24 -1 14 -37 36 -34
37 -37 20 -50 -10 -7 -12 -13 -6 -13 7 0 12 -16 12 -42 0 -37 4 -45 30 -60 32
-18 40 -38 15 -38 -23 0 -18 -18 10 -36 28 -18 33 -44 10 -44 -8 0 -15 -4 -15
-9 0 -5 7 -16 15 -25 8 -8 15 -20 15 -26 0 -13 52 -59 84 -75 18 -9 21 -21 24
-98 2 -68 6 -87 17 -87 11 0 15 -12 15 -40 l0 -40 42 0 c31 0 39 -3 31 -11 -7
-7 -27 -13 -45 -13 -18 -1 -45 -8 -60 -16 -30 -14 -38 -40 -13 -40 8 0 15 -5
15 -10 0 -6 -7 -13 -15 -16 -8 -4 -15 -12 -15 -20 0 -8 -4 -14 -10 -14 -5 0
-10 -7 -10 -15 0 -8 -4 -15 -10 -15 -5 0 -10 -6 -10 -14 0 -7 -13 -19 -30 -26
-19 -8 -30 -20 -30 -32 0 -11 -13 -26 -30 -36 -24 -13 -30 -24 -30 -50 0 -18
-6 -41 -12 -52 -10 -15 -10 -22 0 -32 9 -9 12 -9 12 0 0 17 27 15 34 -3 3 -9
22 -23 41 -31 19 -8 35 -18 35 -23 0 -11 41 -27 65 -25 11 0 34 4 52 8 19 4
34 3 38 -3 3 -6 14 -11 23 -10 14 0 13 2 -3 10 -15 7 -11 7 15 3 19 -3 46 -13
60 -22 14 -9 28 -15 32 -14 15 4 59 -19 53 -28 -4 -6 10 -10 34 -10 23 0 41
-4 41 -9 0 -4 27 -14 60 -21 42 -9 61 -18 65 -31 4 -11 15 -19 26 -19 10 0 19
-4 19 -8 0 -5 16 -16 35 -25 20 -9 38 -24 41 -32 4 -8 15 -15 25 -15 10 0 19
-7 19 -15 0 -8 8 -23 19 -34 10 -10 21 -31 24 -47 14 -72 21 -91 43 -113 18
-18 24 -35 24 -67 0 -24 5 -44 10 -44 6 0 10 -19 10 -42 0 -29 3 -38 9 -29 9
13 7 -49 -4 -192 -6 -77 -40 -210 -55 -215 -6 -2 -10 -12 -10 -22 0 -9 -7 -23
-15 -30 -9 -7 -14 -18 -12 -24 2 -6 -9 -24 -25 -41 -16 -18 -28 -41 -28 -57 0
-18 -5 -28 -15 -28 -8 0 -23 -20 -34 -45 -14 -32 -24 -43 -35 -39 -10 4 -21
-8 -36 -37 -21 -40 -56 -78 -72 -79 -14 0 -43 -35 -60 -73 -10 -21 -29 -43
-43 -49 -30 -13 -33 -38 -5 -38 36 0 140 -77 140 -103 0 -8 19 -25 42 -37 56
-29 106 -73 146 -129 18 -25 36 -48 40 -51 22 -16 60 -72 56 -83 -2 -7 5 -22
16 -34 25 -27 26 -53 3 -54 -17 -1 -17 -2 0 -6 20 -5 23 -23 5 -24 -10 0 -10
-2 0 -6 6 -2 9 -10 5 -16 -5 -9 -2 -8 8 0 13 11 17 2 28 -61 16 -92 9 -196
-18 -264 -11 -29 -21 -65 -21 -80 0 -31 -14 -57 -31 -57 -6 0 -18 -18 -27 -40
-14 -36 -120 -155 -137 -155 -11 0 -35 -28 -35 -40 0 -6 -4 -9 -9 -5 -5 3 -12
-4 -16 -15 -4 -14 -15 -20 -33 -20 -15 0 -36 -6 -47 -14 -41 -29 -139 -48
-221 -43 -87 5 -153 26 -228 75 -28 18 -55 32 -61 32 -6 0 -18 9 -28 20 -17
20 -16 20 10 14 l28 -7 -22 22 c-12 11 -29 21 -37 21 -7 0 -16 7 -20 15 -3 8
-13 15 -21 15 -13 0 -15 7 -11 33 5 27 5 29 -4 9 l-10 -23 -35 28 c-41 33 -45
53 -10 53 14 0 25 4 25 9 0 11 -25 21 -53 21 -18 0 -19 2 -7 10 13 8 13 11 -2
22 -9 7 -20 30 -23 50 -7 34 -5 38 19 44 29 7 26 24 -5 24 -10 0 -28 9 -38 19
-17 17 -17 20 -4 25 11 5 13 10 4 20 -8 10 -6 17 8 30 14 13 19 37 24 114 3
54 10 98 16 100 14 5 14 39 0 44 -7 2 -5 16 7 41 13 28 22 36 36 31 10 -3 18
-1 18 5 0 6 -4 11 -10 11 -21 0 -10 50 15 66 14 9 25 25 25 35 0 10 15 34 33
53 17 18 43 47 57 64 14 18 35 31 48 32 17 0 22 6 22 28 0 20 7 33 24 42 34
18 41 92 10 121 -11 10 -28 19 -37 19 -10 0 -20 7 -23 15 -4 10 -20 15 -47 15
-35 0 -154 35 -167 49 -14 16 -53 31 -79 31 -17 0 -32 4 -36 9 -3 6 -30 22
-61 37 -34 17 -51 30 -43 34 17 11 6 23 -45 49 -30 16 -43 28 -39 38 3 8 -4
24 -16 37 -12 13 -21 27 -20 32 2 5 -3 29 -10 54 -7 25 -17 63 -23 85 -6 22
-13 47 -15 55 -3 8 -7 82 -9 163 -3 119 -7 153 -21 174 -12 18 -14 28 -6 30 8
3 8 13 -3 38 -8 19 -14 63 -14 97 0 35 -5 109 -12 166 -9 79 -15 102 -27 102
-8 0 -28 12 -44 28 -20 18 -31 23 -34 15 -4 -10 -13 -9 -40 2 -19 8 -55 15
-80 15 -40 0 -135 -26 -184 -50 -10 -6 -29 -15 -40 -21 -42 -21 -131 -47 -148
-42 -10 2 -23 -3 -30 -11 -15 -18 -41 -22 -41 -6 0 5 -7 7 -16 3 -11 -4 -12
-8 -4 -13 14 -8 -48 -40 -65 -34 -6 3 -18 -2 -25 -11 -7 -8 -23 -15 -37 -15
-13 0 -35 -11 -49 -23 -21 -20 -34 -23 -77 -20 -44 3 -48 2 -27 -7 19 -9 22
-13 10 -20 -8 -5 -27 -6 -42 -3 -21 4 -28 2 -28 -10 0 -20 -10 -26 -54 -32
-29 -3 -38 0 -43 13 -3 9 -11 31 -18 47 -26 64 -34 91 -32 105 3 22 -13 169
-22 213 -6 26 -6 37 3 37 8 0 8 2 -1 8 -6 4 -14 34 -16 67 -6 66 -16 122 -24
145 -4 8 -8 26 -10 40 -2 14 -9 35 -15 48 -9 18 -9 33 0 68 15 55 15 67 1 59
-6 -4 -8 -13 -5 -20 2 -7 -1 -16 -8 -18 -31 -12 -7 35 39 79 30 28 45 49 38
51 -19 7 -16 30 5 43 14 10 13 11 -10 7 -16 -2 -28 0 -28 4 0 5 8 9 18 9 15 1
15 2 -2 15 -15 11 -16 15 -5 16 8 0 -5 9 -29 19 -75 34 -77 89 -3 149 22 18
38 37 35 42 -3 5 2 9 11 9 12 0 15 6 10 22 -6 16 -4 20 7 16 9 -4 14 2 14 16
1 68 6 96 19 110 8 8 15 22 15 32 0 30 23 84 36 84 7 0 15 18 19 40 4 22 11
38 16 35 5 -4 6 1 3 9 -4 9 5 29 20 47 14 17 26 37 26 44 0 8 9 20 19 27 10 8
24 32 30 54 7 26 20 45 36 54 23 12 25 19 25 81 0 49 5 73 18 88 21 27 75 31
101 7 11 -10 26 -14 37 -10 13 4 15 3 6 -3 -9 -7 -6 -13 14 -22 23 -10 26 -10
20 5 -4 11 -2 15 8 11 7 -3 22 0 33 8 10 7 32 16 48 19 17 3 46 10 65 15 34
10 308 7 519 -5z m-636 -21 c-7 -2 -19 -2 -25 0 -7 3 -2 5 12 5 14 0 19 -2 13
-5z m-7273 -43 c0 -29 -4 -40 -15 -40 -11 0 -15 11 -15 40 0 29 4 40 15 40 11
0 15 -11 15 -40z m240 -40 l0 -80 -40 0 -40 0 0 40 c0 36 3 40 25 40 23 0 25
4 25 40 0 29 4 40 15 40 12 0 15 -16 15 -80z m9340 -120 c0 -5 -5 -10 -11 -10
-5 0 -7 5 -4 10 3 6 8 10 11 10 2 0 4 -4 4 -10z m-547 -37 c-7 -2 -19 -2 -25
0 -7 3 -2 5 12 5 14 0 19 -2 13 -5z m185 -3 c48 0 62 -3 62 -15 0 -12 -16 -15
-80 -15 -63 0 -80 3 -80 14 0 8 -8 17 -17 19 -10 2 -2 3 17 1 19 -2 63 -4 98
-4z m110 -26 c-3 -14 -5 -12 -10 9 -3 19 -2 25 4 19 6 -6 8 -18 6 -28z m-31
-6 c-3 -7 -5 -2 -5 12 0 14 2 19 5 13 2 -7 2 -19 0 -25z m3 -70 c0 -19 -2 -20
-10 -8 -13 19 -13 30 0 30 6 0 10 -10 10 -22z m-445 -1189 c11 -16 1 -19 -13
-3 -7 8 -8 14 -3 14 5 0 13 -5 16 -11z m582 -571 c-3 -8 -6 -5 -6 6 -1 11 2
17 5 13 3 -3 4 -12 1 -19z m-9500 -430 c18 -7 33 -16 33 -20 0 -12 -28 -10
-36 3 -3 6 -17 8 -30 5 -23 -6 -32 3 -17 17 9 9 11 9 50 -5z m92 -32 c9 -11 9
-22 -3 -50 -16 -39 -21 -42 -32 -24 -4 6 -3 8 3 5 6 -4 13 3 17 16 10 38 7 55
-11 60 -15 4 -15 5 -2 6 9 0 22 -5 28 -13z m-159 -40 c0 -14 -4 -27 -10 -31
-5 -3 -8 7 -7 25 2 36 17 41 17 6z m200 -37 c0 -10 -4 -19 -10 -19 -5 0 -10
12 -10 26 0 14 4 23 10 19 6 -3 10 -15 10 -26z m-270 -3 c0 -2 -7 -9 -15 -16
-13 -11 -14 -10 -9 4 5 14 24 23 24 12z m100 -16 c0 -5 -4 -10 -10 -10 -5 0
-10 5 -10 10 0 6 5 10 10 10 6 0 10 -4 10 -10z m77 -15 c8 -9 13 -19 10 -22
-6 -5 -37 21 -37 31 0 10 11 6 27 -9z m-152 -5 c3 -5 1 -10 -4 -10 -6 0 -11 5
-11 10 0 6 2 10 4 10 3 0 8 -4 11 -10z m268 -45 c-7 -21 -12 -19 -10 4 0 11 5
18 9 15 4 -3 5 -11 1 -19z m-117 -25 c8 0 14 -6 14 -14 0 -9 -7 -12 -20 -9
-14 4 -20 13 -19 32 1 17 3 20 6 9 2 -10 11 -18 19 -18z m-76 0 c-11 -11 -20
-24 -20 -30 0 -5 -7 -10 -16 -10 -12 0 -11 6 8 29 13 17 29 30 36 30 7 1 4 -7
-8 -19z m-57 -17 c-7 -17 -20 -17 -26 1 -4 10 0 14 12 13 11 -1 17 -7 14 -14z
m187 -13 c0 -5 -4 -10 -10 -10 -5 0 -10 5 -10 10 0 6 5 10 10 10 6 0 10 -4 10
-10z m1292 -1717 c15 -13 18 -32 18 -106 0 -76 3 -94 19 -111 28 -30 36 -70
17 -85 -9 -8 -16 -20 -16 -27 0 -8 -4 -14 -9 -14 -6 0 -40 -23 -76 -50 -37
-28 -83 -57 -103 -66 -53 -22 -165 -20 -237 5 -33 11 -74 21 -91 21 -32 0 -84
46 -84 73 0 7 -5 18 -12 25 -9 9 -7 13 5 18 9 3 17 16 17 28 0 12 6 31 14 42
13 19 15 101 3 121 -10 16 9 78 25 81 9 2 32 -16 53 -42 35 -43 67 -58 80 -37
10 17 139 40 195 35 l55 -5 50 55 c28 30 52 55 54 55 3 1 13 -6 23 -16z m438
-387 c0 -8 -5 -18 -11 -22 -14 -8 -33 11 -25 25 10 16 36 13 36 -3z m-165 -96
c5 -21 15 -30 48 -39 68 -19 120 -43 147 -67 l25 -23 48 29 c26 17 49 30 52
30 10 0 5 -49 -10 -91 -11 -30 -14 -62 -10 -99 5 -51 3 -58 -20 -80 -23 -22
-32 -23 -120 -21 -145 3 -201 29 -275 129 -54 72 -60 103 -26 130 18 14 32 39
42 78 8 32 22 66 31 76 16 18 17 17 39 -3 13 -12 26 -34 29 -49z m7476 57 c63
-2 121 -7 128 -12 11 -6 12 -27 6 -94 -4 -47 -9 -115 -11 -151 -2 -36 -6 -76
-9 -90 -3 -14 -8 -68 -11 -120 -7 -116 -9 -142 -19 -202 l-7 -48 -57 0 c-31 0
-89 5 -130 10 -120 16 -116 20 -118 -127 -2 -69 -5 -128 -7 -130 -2 -3 -62 -7
-133 -9 -70 -3 -165 -6 -211 -8 -45 -2 -85 1 -89 7 -9 15 -9 307 0 307 4 0 5
6 1 12 -11 17 -14 338 -3 338 4 0 6 7 3 15 -3 8 0 17 7 20 17 6 102 13 180 14
l56 1 8 63 c13 102 14 177 4 177 -12 0 -12 27 1 32 11 3 218 1 411 -5z m-7236
-37 c0 -8 -8 -16 -17 -18 -13 -2 -18 3 -18 18 0 15 5 20 18 18 9 -2 17 -10 17
-18z m-87 -11 c-2 -6 -8 -10 -13 -10 -5 0 -11 4 -13 10 -2 6 4 11 13 11 9 0
15 -5 13 -11z m-413 -132 c13 -10 16 -21 11 -41 -5 -22 -11 -27 -34 -24 -30 3
-42 38 -22 64 15 17 21 18 45 1z m-115 -17 c0 -5 -7 -10 -15 -10 -8 0 -15 5
-15 10 0 6 7 10 15 10 8 0 15 -4 15 -10z m565 -355 c0 -14 -6 -19 -20 -17 -26
5 -29 8 -21 27 8 23 41 14 41 -10z m5205 -13 c19 -16 58 -41 85 -57 103 -58
256 -169 290 -208 20 -23 38 -53 42 -67 3 -14 9 -30 14 -35 4 -6 11 -33 14
-61 7 -50 7 -52 -53 -133 -54 -72 -156 -230 -176 -271 -18 -38 -36 -64 -36
-52 0 7 -4 11 -9 8 -4 -3 -7 -18 -5 -33 2 -16 1 -20 -2 -10 -3 9 -10 17 -16
17 -6 0 -8 -3 -5 -6 11 -11 -14 -46 -28 -40 -8 3 -25 -4 -39 -15 -14 -11 -26
-18 -26 -14 0 3 -9 1 -20 -5 -11 -6 -18 -15 -15 -20 3 -5 -10 -12 -29 -16 -29
-5 -50 1 -108 29 -94 45 -145 62 -240 78 -71 12 -78 15 -78 36 0 31 -36 31
-61 -1 -13 -16 -33 -26 -66 -31 -27 -3 -58 -9 -70 -12 -21 -5 -22 -3 -12 29 6
18 28 99 49 179 42 160 72 251 125 374 19 44 39 99 45 122 20 79 93 108 278
113 7 0 22 21 34 48 39 89 62 100 118 54z m-5314 -40 c19 -12 26 -48 12 -60
-7 -5 -25 -8 -40 -5 -23 4 -28 11 -28 33 0 26 6 32 40 39 3 0 10 -3 16 -7z
m188 -68 c8 -32 -5 -48 -32 -40 -25 8 -36 34 -21 52 19 23 46 17 53 -12z
m-104 -70 c18 -46 -19 -80 -59 -55 -7 5 -13 21 -13 36 0 48 56 63 72 19z
m-866 -80 c20 -20 20 -48 0 -68 -21 -21 -40 -20 -64 4 -21 21 -18 46 8 68 21
16 37 15 56 -4z m81 -109 c0 -28 -29 -25 -33 3 -3 19 0 23 15 20 10 -2 18 -12
18 -23z m33 -116 c3 -28 -16 -43 -43 -33 -15 6 -21 45 -8 58 16 16 48 1 51
-25z m80 -171 c-6 -18 -28 -21 -28 -4 0 9 7 16 16 16 9 0 14 -5 12 -12z m82
-54 c0 -17 -6 -24 -19 -24 -23 0 -32 19 -19 42 12 24 38 11 38 -18z m5480
-1024 c8 -5 11 -10 5 -10 -5 0 -17 5 -25 10 -8 5 -10 10 -5 10 6 0 17 -5 25
-10z"/>
<path d="M9095 8620 c3 -5 10 -10 16 -10 5 0 9 5 9 10 0 6 -7 10 -16 10 -8 0
-12 -4 -9 -10z"/>
<path d="M7175 8150 c3 -5 8 -10 11 -10 2 0 4 5 4 10 0 6 -5 10 -11 10 -5 0
-7 -4 -4 -10z"/>
<path d="M7242 7930 c0 -14 2 -19 5 -12 2 6 2 18 0 25 -3 6 -5 1 -5 -13z"/>
<path d="M9200 7891 c0 -10 19 -25 25 -20 1 2 -3 10 -11 17 -8 7 -14 8 -14 3z"/>
<path d="M8481 7554 c0 -11 3 -14 6 -6 3 7 2 16 -1 19 -3 4 -6 -2 -5 -13z"/>
<path d="M7322 7450 c0 -14 2 -19 5 -12 2 6 2 18 0 25 -3 6 -5 1 -5 -13z"/>
<path d="M9881 7314 c0 -11 3 -14 6 -6 3 7 2 16 -1 19 -3 4 -6 -2 -5 -13z"/>
<path d="M9880 7256 c0 -2 7 -9 15 -16 9 -7 15 -8 15 -2 0 5 -7 12 -15 16 -8
3 -15 4 -15 2z"/>
<path d="M9875 7210 c3 -5 8 -10 11 -10 2 0 4 5 4 10 0 6 -5 10 -11 10 -5 0
-7 -4 -4 -10z"/>
<path d="M8648 6643 c7 -3 16 -2 19 1 4 3 -2 6 -13 5 -11 0 -14 -3 -6 -6z"/>
<path d="M9200 6285 c0 -14 4 -25 8 -25 5 0 19 11 32 25 l23 25 -31 0 c-27 0
-32 -4 -32 -25z"/>
<path d="M8890 5866 c0 -4 7 -14 15 -22 8 -9 15 -11 15 -6 0 5 -7 15 -15 22
-8 7 -15 9 -15 6z"/>
<path d="M1610 4679 c-10 -17 -9 -23 1 -30 29 -18 55 -5 54 26 0 29 -40 32
-55 4z"/>
<path d="M1425 4669 c-12 -18 4 -57 22 -55 22 4 38 29 30 50 -7 18 -42 22 -52
5z"/>
<path d="M1532 4628 c-35 -45 -21 -80 31 -71 42 6 44 13 20 54 -19 31 -35 36
-51 17z"/>
<path d="M2040 4315 c-18 -21 -4 -47 22 -43 29 4 35 34 10 47 -15 8 -23 7 -32
-4z"/>
<path d="M2228 4259 c-21 -12 -23 -35 -5 -42 24 -9 42 9 31 32 -7 15 -13 18
-26 10z"/>
<path d="M2093 4230 c-31 -12 -29 -28 4 -41 14 -5 31 -17 38 -25 9 -13 13 -13
22 -2 23 29 21 56 -4 67 -28 13 -30 13 -60 1z"/>
<path d="M9374 4405 c-11 -27 5 -65 26 -65 23 0 46 40 37 64 -8 20 -56 21 -63
1z"/>
<path d="M9042 4119 c2 -12 13 -26 26 -30 21 -8 23 -6 20 19 -2 20 -9 28 -26
30 -19 3 -23 0 -20 -19z"/>
<path d="M7020 3110 c-9 -6 -10 -10 -3 -10 6 0 15 5 18 10 8 12 4 12 -15 0z"/>
<path d="M1016 9656 c7 -18 -17 -46 -40 -46 -12 0 -16 -11 -16 -50 0 -27 5
-50 10 -50 6 0 10 18 10 40 0 27 4 40 13 40 36 0 61 67 29 78 -7 2 -10 -2 -6
-12z"/>
<path d="M860 9494 c0 -20 -24 -44 -44 -44 -9 0 -16 -8 -16 -20 0 -11 5 -20
10 -20 6 0 10 5 10 10 0 6 5 10 12 10 6 0 20 7 30 17 17 15 18 15 18 0 0 -10
5 -17 10 -17 6 0 10 18 10 40 0 33 -3 40 -20 40 -12 0 -20 -7 -20 -16z"/>
<path d="M970 9241 c0 -6 5 -13 10 -16 6 -3 10 1 10 9 0 9 -4 16 -10 16 -5 0
-10 -4 -10 -9z"/>
<path d="M976 9134 c-9 -25 -7 -64 4 -64 6 0 10 18 10 40 0 43 -4 50 -14 24z"/>
<path d="M153 9072 c-119 -2 -153 -5 -153 -16 0 -11 56 -12 303 -9 188 2 303
7 305 13 2 6 -48 10 -136 10 -77 0 -146 1 -154 3 -7 1 -82 1 -165 -1z"/>
<path d="M880 8940 c0 -5 5 -10 10 -10 6 0 10 5 10 10 0 6 -4 10 -10 10 -5 0
-10 -4 -10 -10z"/>
<path d="M0 8910 c0 -6 93 -11 255 -12 140 -1 276 -2 302 -3 28 0 48 5 51 13
3 9 -62 12 -302 12 -197 0 -306 -4 -306 -10z"/>
<path d="M0 8750 c0 -6 75 -11 200 -12 374 -5 403 -4 408 10 3 9 -62 12 -302
12 -197 0 -306 -4 -306 -10z"/>
<path d="M1257 8753 c-66 -2 -105 -7 -102 -13 7 -11 332 -11 440 0 l70 7 -91
1 c-50 1 -118 4 -150 5 -32 2 -108 2 -167 0z"/>
<path d="M1543 8573 c-43 -21 -50 -43 -21 -65 43 -33 58 -24 58 32 0 28 -1 50
-2 49 -2 0 -17 -7 -35 -16z"/>
<path d="M2708 7573 c12 -2 32 -2 45 0 12 2 2 4 -23 4 -25 0 -35 -2 -22 -4z"/>
<path d="M2620 7559 c0 -5 5 -7 10 -4 6 3 10 8 10 11 0 2 -4 4 -10 4 -5 0 -10
-5 -10 -11z"/>
<path d="M2708 7543 c12 -2 30 -2 40 0 9 3 -1 5 -23 4 -22 0 -30 -2 -17 -4z"/>
<path d="M918 7343 c7 -3 16 -2 19 1 4 3 -2 6 -13 5 -11 0 -14 -3 -6 -6z"/>
<path d="M955 7330 c-3 -5 -1 -10 4 -10 6 0 11 5 11 10 0 6 -2 10 -4 10 -3 0
-8 -4 -11 -10z"/>
<path d="M880 7300 c0 -5 7 -7 15 -4 8 4 15 8 15 10 0 2 -7 4 -15 4 -8 0 -15
-4 -15 -10z"/>
<path d="M800 7268 c0 -4 4 -8 9 -8 6 0 12 4 15 8 3 5 -1 9 -9 9 -8 0 -15 -4
-15 -9z"/>
<path d="M526 7091 c-7 -11 19 -64 41 -83 10 -8 33 -21 51 -28 57 -22 57 1 -1
63 -49 53 -79 69 -91 48z"/>
<path d="M4476 6908 c-33 -5 -75 -20 -95 -34 -20 -13 -40 -24 -46 -24 -14 0
-101 -85 -155 -150 -25 -30 -66 -77 -92 -104 -26 -27 -45 -52 -43 -56 3 -5 20
-17 39 -28 l34 -20 50 76 c56 87 91 127 146 171 45 36 56 38 49 12 -3 -14 2
-20 22 -25 44 -11 75 -50 75 -94 0 -45 -28 -76 -78 -87 l-32 -7 27 -50 c50
-91 123 -130 246 -129 67 0 90 5 142 29 93 44 135 119 135 241 l0 56 25 -30
c32 -40 48 -118 49 -245 1 -92 3 -105 19 -108 10 -2 25 2 34 9 13 11 15 33 11
139 -5 118 -7 129 -42 205 -59 127 -171 215 -317 250 -71 16 -116 17 -203 3z
m44 -373 c31 -38 -27 -96 -65 -65 -18 15 -20 66 -2 73 24 10 55 7 67 -8z"/>
<path d="M6106 6905 c-128 -33 -249 -122 -299 -221 -42 -84 -57 -150 -57 -259
0 -108 7 -125 48 -125 24 0 24 1 18 64 -10 92 9 221 42 276 l27 45 6 -77 c14
-171 106 -251 284 -249 113 1 196 44 235 121 26 51 25 57 -7 65 -98 24 -97
156 2 181 22 5 25 11 21 30 -8 30 -5 30 35 -3 63 -54 120 -118 162 -185 23
-37 45 -68 49 -68 4 0 23 10 44 22 l37 22 -39 35 c-22 20 -57 59 -79 87 -92
117 -178 191 -267 228 -53 23 -193 28 -262 11z m228 -361 c21 -8 21 -58 0 -74
-22 -19 -68 -1 -72 28 -6 41 28 63 72 46z"/>
<path d="M5211 5761 c-9 -6 0 -13 32 -24 51 -17 79 -9 58 17 -14 17 -67 21
-90 7z"/>
<path d="M5490 5755 c-23 -28 2 -35 59 -18 38 11 50 18 40 24 -23 14 -85 10
-99 -6z"/>
<path d="M5280 5439 c-25 -5 -52 -12 -60 -15 -8 -4 -24 -8 -35 -9 -146 -21
-199 -25 -312 -23 -73 1 -135 0 -138 -4 -8 -8 19 -87 48 -141 98 -182 217
-286 412 -359 70 -27 94 -31 190 -32 67 -1 129 4 160 13 81 23 205 87 273 141
98 80 213 249 238 353 6 26 4 27 -32 29 -22 1 -79 0 -129 -1 -105 -3 -234 12
-360 41 -50 12 -90 17 -92 11 -3 -9 -64 -10 -99 0 -11 2 -39 1 -64 -4z m105
-124 c427 0 532 5 600 31 24 10 18 -14 -22 -80 -76 -125 -185 -211 -303 -236
-19 -4 -71 -16 -114 -25 -61 -13 -104 -16 -190 -11 -154 9 -166 10 -166 17 0
4 -17 9 -37 12 -71 9 -189 75 -246 136 -42 46 -117 163 -117 183 0 3 33 -2 73
-11 59 -12 154 -15 522 -16z"/>
<path d="M1675 4133 c-45 -12 -220 -86 -227 -96 -14 -22 -8 -57 12 -77 23 -23
49 -20 110 10 70 35 77 34 83 -6 3 -20 14 -45 23 -55 21 -24 10 -39 -56 -75
-97 -53 -84 -132 17 -105 21 6 81 35 133 64 108 61 139 97 119 140 -12 27 -47
47 -83 47 -33 0 -37 9 -21 41 8 15 15 42 15 58 0 46 -57 71 -125 54z"/>
<path d="M1840 3781 c-51 -16 -144 -67 -171 -94 -39 -38 -52 -90 -34 -132 26
-64 90 -54 101 15 9 56 26 67 69 44 29 -15 38 -16 58 -5 12 7 28 25 34 41 l11
28 46 -16 c41 -15 48 -15 56 -2 14 22 12 79 -3 94 -34 35 -104 46 -167 27z"/>
<path d="M1885 3536 c-67 -28 -140 -97 -151 -142 -15 -60 43 -109 131 -109
125 0 267 79 285 159 16 72 -26 107 -135 113 -58 3 -80 -1 -130 -21z m115
-101 c-13 -16 -71 -30 -92 -22 -16 6 49 35 81 36 20 1 21 -1 11 -14z"/>
<path d="M5787 3187 c-33 -22 -54 -43 -48 -46 6 -4 8 -29 4 -64 -4 -42 -12
-63 -31 -82 -29 -29 -42 -25 -37 13 2 15 4 27 5 27 1 0 3 15 5 33 1 18 11 42
20 52 17 19 17 20 -4 20 -13 0 -37 -10 -53 -22 -31 -21 -31 -21 -8 -30 20 -7
22 -13 16 -48 -9 -60 -44 -120 -64 -113 -31 11 -33 15 -16 27 14 11 15 18 6
46 -10 28 -9 36 8 60 24 34 18 41 -26 27 -25 -7 -34 -16 -34 -31 1 -21 1 -21
16 -1 14 19 15 17 9 -24 -3 -23 -10 -54 -15 -67 -5 -13 -7 -30 -4 -38 3 -9 -5
-15 -27 -20 -18 -3 -34 -5 -35 -3 -10 10 -14 136 -5 142 6 3 11 10 11 16 0 12
-41 12 -60 -1 -13 -8 -13 -10 0 -15 11 -4 16 -24 17 -70 2 -62 0 -65 -23 -71
-14 -4 -29 -3 -34 2 -10 11 -21 55 -24 105 -3 49 -12 59 -49 58 -18 -1 -24 -3
-15 -6 18 -5 26 -22 32 -69 3 -16 7 -36 11 -45 10 -25 -21 -44 -50 -31 -18 9
-25 21 -30 59 -4 26 -8 53 -9 58 -5 16 -2 30 7 27 4 -1 7 2 7 8 0 5 -6 10 -14
10 -8 0 -21 3 -29 6 -14 5 -14 0 -2 -40 8 -25 11 -46 8 -46 -3 0 -1 -6 5 -13
12 -14 5 -57 -8 -57 -24 0 -70 37 -70 57 0 12 -5 25 -11 28 -6 4 -8 13 -5 21
3 8 1 14 -5 14 -7 0 -9 -13 -5 -35 9 -48 -10 -39 -52 25 -25 39 -31 56 -27 83
5 29 2 37 -20 51 -15 10 -29 16 -31 13 -6 -6 25 -85 72 -181 32 -67 46 -88 64
-92 11 -2 86 -35 105 -46 11 -6 74 -12 143 -14 68 -1 126 -5 129 -8 3 -3 15 0
27 6 11 7 33 13 48 14 15 1 49 12 75 25 44 22 52 32 104 134 54 107 93 196 87
199 -2 1 -29 -15 -61 -37z"/>
<path d="M3150 3093 c0 -13 5 -23 10 -23 13 0 13 11 0 30 -8 12 -10 11 -10 -7z"/>
<path d="M5115 3080 c-3 -5 1 -10 10 -10 9 0 13 5 10 10 -3 6 -8 10 -10 10 -2
0 -7 -4 -10 -10z"/>
<path d="M5505 3060 c3 -5 8 -10 11 -10 2 0 4 5 4 10 0 6 -5 10 -11 10 -5 0
-7 -4 -4 -10z"/>
<path d="M5141 2874 c0 -11 3 -14 6 -6 3 7 2 16 -1 19 -3 4 -6 -2 -5 -13z"/>
<path d="M5537 2816 c-16 -13 -16 -14 3 -19 13 -3 18 -10 14 -21 -8 -21 10
-21 30 0 19 19 20 25 3 18 -8 -3 -18 4 -23 15 -8 17 -11 18 -27 7z"/>
<path d="M5500 2761 c0 -11 31 -24 39 -16 3 3 -1 10 -9 15 -19 12 -30 12 -30
1z"/>
<path d="M5430 2735 c-1 -5 -4 -22 -6 -37 -3 -16 -1 -28 5 -28 15 0 21 28 11
52 -5 13 -9 19 -10 13z"/>
<path d="M5270 2721 c0 -7 -5 -9 -12 -5 -7 5 -8 3 -3 -5 5 -9 10 -10 18 -2 6
6 8 14 4 18 -4 3 -7 1 -7 -6z"/>
<path d="M5460 2694 c0 -8 5 -12 10 -9 6 3 10 10 10 16 0 5 -4 9 -10 9 -5 0
-10 -7 -10 -16z"/>
<path d="M5367 2693 c-4 -3 -7 -18 -7 -33 0 -14 -5 -31 -12 -38 -17 -17 -4
-25 48 -26 44 -1 45 -1 17 -13 -18 -8 -22 -12 -11 -13 10 0 32 13 50 29 28 25
31 32 19 43 -12 11 -13 10 -8 -4 4 -11 1 -17 -11 -16 -9 0 -28 -3 -42 -6 -24
-6 -24 -6 -2 4 18 8 21 13 13 27 -14 26 -47 54 -54 46z"/>
<path d="M5316 2665 c-17 -13 -17 -15 -3 -21 9 -3 14 -11 11 -16 -4 -6 -1 -9
7 -6 15 5 26 58 12 58 -4 0 -17 -7 -27 -15z"/>
<path d="M6730 2380 c0 -5 7 -10 15 -10 8 0 15 5 15 10 0 6 -7 10 -15 10 -8 0
-15 -4 -15 -10z"/>
<path d="M6653 2373 c9 -2 25 -2 35 0 9 3 1 5 -18 5 -19 0 -27 -2 -17 -5z"/>
<path d="M2353 1755 l-33 -14 0 -111 c0 -60 -2 -110 -3 -110 -2 0 -19 7 -37
16 -23 12 -46 15 -81 11 -150 -18 -243 -167 -198 -318 15 -47 61 -104 102
-125 42 -22 115 -20 170 4 45 20 45 20 50 0 5 -16 13 -19 44 -16 l38 3 3 338
c2 367 6 349 -55 322z m-64 -280 l31 -36 0 -134 0 -134 -31 -17 c-101 -52
-188 21 -197 164 -8 117 40 192 123 192 37 0 48 -5 74 -35z"/>
<path d="M5352 1755 l-32 -14 2 -323 3 -323 41 -3 41 -3 5 123 c2 68 4 220 4
338 -1 237 0 233 -64 205z"/>
<path d="M8083 1749 c-55 -27 -87 -78 -93 -149 l-5 -55 -45 -5 c-25 -3 -44 -8
-42 -12 1 -5 2 -12 2 -18 0 -5 20 -10 45 -10 l45 0 2 -202 3 -203 40 0 40 0 3
202 2 202 58 3 c45 2 58 7 60 21 3 15 -5 17 -57 17 l-61 0 0 70 c0 88 17 120
65 120 34 0 75 -36 75 -66 0 -22 18 -26 45 -8 45 29 27 68 -48 99 -49 20 -84
19 -134 -6z"/>
<path d="M8415 1756 c-65 -28 -99 -86 -107 -181 -3 -28 -6 -30 -45 -33 -35 -3
-43 -7 -43 -23 0 -16 7 -19 45 -19 l45 0 2 -202 3 -203 40 0 40 0 3 203 2 202
105 0 105 0 1 -147 c1 -268 -1 -252 36 -259 18 -3 37 -4 43 -2 7 2 11 75 11
223 l1 220 -151 3 -151 3 0 68 c0 54 4 74 21 95 24 30 63 34 91 9 17 -15 19
-15 38 2 28 25 26 30 -19 43 -49 15 -78 15 -116 -2z"/>
<path d="M10132 1755 l-32 -14 2 -323 3 -323 40 0 40 0 3 338 c2 367 6 349
-56 322z"/>
<path d="M8622 1748 c-19 -19 -15 -66 7 -78 41 -22 81 1 81 45 0 38 -61 60
-88 33z"/>
<path d="M9392 1748 c-31 -31 -4 -88 42 -88 20 0 46 28 46 50 0 40 -60 66 -88
38z"/>
<path d="M708 1676 c-60 -22 -89 -45 -105 -84 -35 -83 6 -159 120 -221 131
-72 156 -90 172 -121 37 -72 -22 -137 -116 -128 -57 6 -93 29 -128 81 -20 30
-27 35 -42 26 -27 -14 -23 -39 12 -82 38 -46 117 -72 195 -64 108 11 174 71
174 157 0 76 -39 117 -183 192 -98 51 -137 87 -137 125 0 96 145 123 217 39
15 -18 33 -41 38 -50 13 -23 45 -11 45 17 0 29 -43 81 -82 100 -50 23 -136 29
-180 13z"/>
<path d="M1183 1680 c-20 -8 -23 -16 -23 -70 l0 -61 -42 -18 c-44 -19 -41 -27
12 -33 l25 -3 5 -181 c4 -157 7 -185 23 -202 36 -39 114 -33 157 13 29 31 21
42 -19 26 -22 -10 -34 -10 -50 -1 -20 10 -21 18 -21 180 l0 169 48 3 c34 2 47
7 47 18 0 11 -13 16 -47 18 l-48 3 0 75 c0 70 -1 74 -22 73 -13 0 -33 -4 -45
-9z"/>
<path d="M3673 1678 c-20 -10 -23 -19 -23 -74 l0 -62 -35 -12 c-19 -6 -35 -16
-35 -21 0 -5 16 -9 35 -9 l35 0 0 -164 c0 -220 10 -246 100 -246 45 0 100 31
100 56 0 16 -26 19 -35 4 -10 -16 -40 -12 -58 8 -14 16 -17 44 -17 180 l0 162
50 0 c43 0 50 3 50 19 0 17 -8 20 -47 23 l-48 3 -3 73 c-3 67 -4 72 -25 71
-12 0 -32 -5 -44 -11z"/>
<path d="M7423 1675 c-237 -66 -311 -344 -135 -507 89 -82 200 -106 322 -69
59 18 81 31 122 72 67 67 92 125 93 214 0 122 -64 218 -180 271 -66 30 -155
38 -222 19z m188 -48 c85 -56 124 -220 83 -358 -21 -70 -56 -117 -108 -140
-98 -44 -198 -5 -250 98 -23 46 -36 153 -26 221 21 148 111 223 240 201 19 -3
47 -13 61 -22z"/>
<path d="M4162 1383 l3 -288 45 0 45 0 3 138 3 138 140 -3 141 -3 -1 -126 c-2
-142 2 -152 65 -147 l37 3 5 288 5 288 -54 -3 -54 -3 -2 -125 -1 -125 -141 -3
-141 -3 0 131 0 130 -50 0 -50 0 2 -287z"/>
<path d="M2688 1540 c-45 -13 -86 -49 -115 -98 -25 -41 -28 -57 -28 -133 0
-78 3 -89 29 -127 79 -115 233 -128 333 -28 38 39 63 89 50 102 -3 3 -25 -14
-49 -39 -89 -93 -205 -82 -256 26 -12 23 -22 58 -24 77 l-3 35 165 5 165 5 -4
30 c-5 45 -51 105 -101 131 -46 25 -109 30 -162 14z m121 -65 c17 -20 31 -45
31 -55 0 -19 -7 -20 -105 -20 -116 0 -120 3 -90 60 20 38 41 49 91 50 36 0 47
-5 73 -35z"/>
<path d="M3117 1534 l-27 -15 2 -212 3 -212 40 0 40 0 5 169 5 169 55 30 c62
34 101 32 122 -6 9 -14 15 -81 18 -192 l5 -170 40 0 40 1 3 157 c1 92 -2 175
-8 199 -29 104 -127 128 -225 53 -25 -19 -47 -35 -50 -35 -3 0 -5 18 -5 40 0
45 -14 51 -63 24z"/>
<path d="M4893 1525 c-166 -83 -162 -349 7 -421 48 -21 128 -20 170 1 66 33
140 120 125 145 -10 16 -21 11 -35 -15 -28 -53 -121 -91 -180 -75 -62 17 -120
98 -120 170 l0 30 160 0 c180 0 182 1 155 66 -47 112 -169 155 -282 99z m154
-49 c13 -15 23 -38 23 -52 0 -24 0 -24 -106 -24 l-106 0 7 28 c3 15 18 40 33
55 24 26 32 28 76 24 38 -3 55 -11 73 -31z"/>
<path d="M5598 1537 l-28 -11 0 -308 0 -308 45 0 45 0 0 101 c0 92 1 101 18
94 65 -28 168 -20 226 18 36 24 74 94 87 161 28 138 -54 266 -171 266 -36 0
-97 -29 -124 -59 -28 -30 -36 -26 -36 19 0 44 -10 48 -62 27z m241 -72 c39
-33 55 -83 55 -170 0 -110 -47 -175 -126 -175 -32 0 -47 7 -74 34 l-34 34 0
114 c0 112 1 115 28 141 54 52 106 59 151 22z"/>
<path d="M6225 1531 c-75 -34 -135 -133 -135 -224 0 -79 51 -162 122 -198 49
-25 133 -27 181 -4 65 31 141 125 119 147 -6 6 -17 -1 -31 -21 -42 -58 -131
-92 -187 -71 -61 23 -113 100 -114 168 l0 32 165 0 c159 0 165 1 165 20 0 28
-33 90 -62 117 -56 53 -151 67 -223 34z m123 -37 c22 -15 52 -63 52 -84 0 -6
-40 -10 -111 -10 l-111 0 7 28 c12 48 53 82 100 82 22 0 51 -7 63 -16z"/>
<path d="M6677 1538 l-27 -10 2 -216 3 -217 40 0 40 0 5 165 c3 91 9 171 13
178 24 36 106 51 158 28 12 -5 20 1 29 25 12 28 12 33 -5 45 -10 8 -33 14 -49
14 -41 -1 -112 -33 -128 -59 -19 -30 -26 -26 -30 16 -3 41 -11 46 -51 31z"/>
<path d="M8974 1526 c-95 -44 -142 -132 -131 -246 10 -116 91 -191 207 -191
50 -1 69 4 101 25 63 42 125 156 85 156 -9 0 -21 -12 -27 -27 -16 -42 -49 -72
-91 -84 -101 -27 -188 66 -188 199 0 90 50 152 125 152 43 0 69 -18 94 -67 14
-28 19 -28 50 -2 22 18 23 22 11 44 -18 33 -87 65 -141 65 -25 0 -66 -10 -95
-24z"/>
<path d="M9407 1534 l-27 -15 2 -212 3 -212 40 0 40 0 3 228 c2 212 1 227 -15
227 -10 -1 -30 -8 -46 -16z"/>
<path d="M9727 1536 c-55 -20 -91 -52 -100 -88 -4 -15 2 -18 39 -18 32 0 44 4
44 14 0 25 43 66 75 72 47 9 76 -21 82 -82 l5 -49 -74 -22 c-145 -43 -215
-117 -188 -198 28 -86 129 -104 219 -41 34 25 36 25 45 7 10 -22 47 -41 81
-41 30 0 39 14 20 30 -12 10 -15 43 -15 176 0 89 -4 174 -10 188 -5 14 -21 32
-35 42 -34 22 -140 28 -188 10z m141 -268 c-3 -81 -3 -83 -37 -105 -43 -29
-82 -29 -108 0 -51 55 -28 108 68 156 34 17 66 31 71 31 5 0 8 -37 6 -82z"/>
<path d="M1480 1369 c0 -184 9 -225 55 -255 62 -41 122 -36 193 16 l41 29 3
-32 c3 -30 5 -32 43 -32 l40 0 3 223 2 222 -45 0 -45 0 0 -163 c0 -181 -5
-198 -65 -223 -24 -10 -42 -11 -68 -3 -62 17 -67 33 -67 221 l0 168 -45 0 -45
0 0 -171z"/>
</g>
</svg>
