<svg width="196" height="41" viewBox="0 0 196 41" fill="none" xmlns="http://www.w3.org/2000/svg">
  <rect y="3.24512" width="9.41177" height="34.5098" fill="#181818" />
  <rect x="14.3962" y="11.4023" width="9.41177" height="26.3529" fill="#181818" />
  <rect x="28.7922" y="3.24512" width="9.41177" height="34.5098" fill="#181818" />
  <path
    d="M49.3467 16.0756C49.6269 16.5827 49.9405 17.0231 50.2875 17.3968C50.6478 17.7704 51.0349 18.0574 51.4486 18.2575C51.8756 18.4577 52.3227 18.5578 52.7898 18.5578C53.2835 18.5578 53.6906 18.4377 54.0108 18.1975C54.3311 17.9439 54.4913 17.6036 54.4913 17.1766C54.4913 16.8163 54.3979 16.5293 54.211 16.3158C54.0242 16.0889 53.7239 15.8754 53.3102 15.6752C52.8965 15.4751 52.3494 15.2482 51.6687 14.9946C51.3351 14.8745 50.9481 14.7077 50.5077 14.4942C50.0807 14.2807 49.6736 14.0071 49.2866 13.6735C48.8996 13.3265 48.5793 12.9128 48.3258 12.4323C48.0722 11.9386 47.9454 11.3447 47.9454 10.6508C47.9454 9.82335 48.1589 9.10938 48.586 8.50884C49.0264 7.9083 49.6136 7.45457 50.3476 7.14762C51.0949 6.82734 51.9223 6.6672 52.8298 6.6672C53.764 6.6672 54.5713 6.82067 55.252 7.12761C55.9459 7.43455 56.5198 7.82156 56.9735 8.28864C57.4272 8.75573 57.7742 9.22948 58.0144 9.70991L55.4321 11.1512C55.2319 10.8176 54.9984 10.5306 54.7315 10.2904C54.4779 10.0369 54.191 9.84337 53.8707 9.70991C53.5638 9.56312 53.2301 9.48972 52.8698 9.48972C52.3894 9.48972 52.0224 9.59648 51.7688 9.81C51.5153 10.0102 51.3885 10.2637 51.3885 10.5707C51.3885 10.891 51.5086 11.1712 51.7488 11.4114C52.0024 11.6516 52.356 11.8718 52.8098 12.072C53.2769 12.2722 53.8374 12.4857 54.4913 12.7126C54.985 12.8994 55.4455 13.1196 55.8725 13.3732C56.2996 13.6134 56.6732 13.907 56.9935 14.254C57.3271 14.6009 57.5874 15.0013 57.7742 15.455C57.961 15.9088 58.0545 16.4292 58.0545 17.0164C58.0545 17.7237 57.9077 18.3576 57.6141 18.9181C57.3338 19.4653 56.9468 19.9257 56.453 20.2994C55.9726 20.673 55.4188 20.9533 54.7915 21.1401C54.1777 21.3403 53.5438 21.4404 52.8898 21.4404C51.9824 21.4404 51.1349 21.2803 50.3476 20.96C49.5735 20.6263 48.8996 20.1793 48.3258 19.6188C47.7519 19.0583 47.3049 18.4444 46.9846 17.7771L49.3467 16.0756ZM58.9152 10.0102V6.98748H70.0051V10.0102H66.1417V21H62.7587V10.0102H58.9152ZM71.4373 6.98748H74.8204V16.1557C74.8204 16.863 75.0072 17.4368 75.3809 17.8772C75.7545 18.3176 76.315 18.5378 77.0624 18.5378C77.8231 18.5378 78.3902 18.3176 78.7639 17.8772C79.1376 17.4368 79.3244 16.863 79.3244 16.1557V6.98748H82.7074V16.3959C82.7074 17.2767 82.5606 18.044 82.267 18.6979C81.9868 19.3519 81.5864 19.8923 81.066 20.3194C80.5588 20.7331 79.9583 21.0467 79.2643 21.2602C78.5837 21.4738 77.8497 21.5805 77.0624 21.5805C76.275 21.5805 75.541 21.4738 74.8604 21.2602C74.1798 21.0467 73.5793 20.7331 73.0588 20.3194C72.5517 19.8923 72.1513 19.3519 71.8577 18.6979C71.5775 18.044 71.4373 17.2767 71.4373 16.3959V6.98748ZM85.5734 6.98748H89.0565V21H85.5734V6.98748ZM90.5779 21H87.8154V17.9973H90.4578C90.9916 17.9973 91.5054 17.9306 91.9992 17.7971C92.5063 17.6637 92.9467 17.4435 93.3203 17.1365C93.7073 16.8296 94.0143 16.4226 94.2412 15.9155C94.468 15.395 94.5815 14.7544 94.5815 13.9937C94.5815 13.2331 94.468 12.5992 94.2412 12.092C94.0143 11.5716 93.7073 11.1579 93.3203 10.8509C92.9467 10.544 92.5063 10.3238 91.9992 10.1903C91.5054 10.0569 90.9916 9.99016 90.4578 9.99016H87.8154V6.98748H90.5779C92.1126 6.98748 93.4404 7.2744 94.5614 7.84825C95.6824 8.4221 96.5499 9.22948 97.1638 10.2704C97.7777 11.3113 98.0846 12.5525 98.0846 13.9937C98.0846 15.4217 97.7777 16.6628 97.1638 17.7171C96.5499 18.758 95.6824 19.5654 94.5614 20.1392C93.4404 20.7131 92.1126 21 90.5779 21ZM102.497 21V18.2175H109.563V21H102.497ZM102.497 9.76997V6.98748H109.563V9.76997H102.497ZM102.497 14.9946V12.2722H109.162V14.9946H102.497ZM100.254 6.98748H103.497V21H100.254V6.98748ZM121.985 6.98748H125.248V21.7006L115.559 13.113V21H112.316V6.28686L121.985 14.8745V6.98748ZM126.808 10.0102V6.98748H137.898V10.0102H134.034V21H130.651V10.0102H126.808ZM146.372 15.1348V12.092H156.982V15.1348H146.372ZM154.84 6.98748H158.223V21H154.84V6.98748ZM145.432 6.98748H148.815V21H145.432V6.98748ZM163.41 21V18.2175H170.477V21H163.41ZM163.41 9.76997V6.98748H170.477V9.76997H163.41ZM163.41 14.9946V12.2722H170.076V14.9946H163.41ZM161.168 6.98748H164.411V21H161.168V6.98748ZM173.23 6.98748H176.613V18.0974H182.238V21H173.23V6.98748ZM183.806 6.98748H187.189V21H183.806V6.98748ZM185.928 9.76997V6.98748H188.67C189.858 6.98748 190.852 7.17431 191.653 7.54798C192.467 7.9083 193.081 8.42877 193.494 9.10938C193.908 9.78998 194.115 10.6107 194.115 11.5716C194.115 12.5057 193.908 13.3198 193.494 14.0138C193.081 14.6944 192.467 15.2215 191.653 15.5952C190.852 15.9555 189.858 16.1357 188.67 16.1357H185.928V13.3532H188.67C189.351 13.3532 189.884 13.1997 190.271 12.8928C190.658 12.5858 190.852 12.1454 190.852 11.5716C190.852 10.9844 190.658 10.5373 190.271 10.2304C189.884 9.92344 189.351 9.76997 188.67 9.76997H185.928Z"
    fill="#181818"
  />
  <path
    d="M51.2284 37.3594H51.929V39.3412H51.2684V38H47.1847V39.3412H46.5242V37.3594H47.1347C47.475 36.9124 47.6452 36.2818 47.6452 35.4677V32.9955H51.2284V37.3594ZM47.9354 37.3594H50.5678V33.6361H48.3057V35.4677C48.3057 36.2351 48.1823 36.8657 47.9354 37.3594ZM56.9266 37.3694C56.4195 37.8699 55.7989 38.1201 55.0649 38.1201C54.3309 38.1201 53.707 37.8699 53.1932 37.3694C52.6861 36.8623 52.4326 36.2384 52.4326 35.4978C52.4326 34.7571 52.6861 34.1365 53.1932 33.6361C53.707 33.129 54.3309 32.8754 55.0649 32.8754C55.7989 32.8754 56.4195 33.129 56.9266 33.6361C57.4404 34.1365 57.6973 34.7571 57.6973 35.4978C57.6973 36.2384 57.4404 36.8623 56.9266 37.3694ZM53.6637 36.909C54.044 37.2894 54.5111 37.4795 55.0649 37.4795C55.6187 37.4795 56.0858 37.2894 56.4662 36.909C56.8465 36.522 57.0367 36.0516 57.0367 35.4978C57.0367 34.9439 56.8465 34.4769 56.4662 34.0965C56.0858 33.7095 55.6187 33.516 55.0649 33.516C54.5111 33.516 54.044 33.7095 53.6637 34.0965C53.2833 34.4769 53.0931 34.9439 53.0931 35.4978C53.0931 36.0516 53.2833 36.522 53.6637 36.909ZM63.0065 32.9955V38H62.3459V33.6361H59.4633V38H58.8027V32.9955H63.0065ZM68.5972 37.3694C68.09 37.8699 67.4695 38.1201 66.7355 38.1201C66.0015 38.1201 65.3776 37.8699 64.8638 37.3694C64.3567 36.8623 64.1031 36.2384 64.1031 35.4978C64.1031 34.7571 64.3567 34.1365 64.8638 33.6361C65.3776 33.129 66.0015 32.8754 66.7355 32.8754C67.4695 32.8754 68.09 33.129 68.5972 33.6361C69.1109 34.1365 69.3678 34.7571 69.3678 35.4978C69.3678 36.2384 69.1109 36.8623 68.5972 37.3694ZM65.3342 36.909C65.7146 37.2894 66.1817 37.4795 66.7355 37.4795C67.2893 37.4795 67.7564 37.2894 68.1367 36.909C68.5171 36.522 68.7073 36.0516 68.7073 35.4978C68.7073 34.9439 68.5171 34.4769 68.1367 34.0965C67.7564 33.7095 67.2893 33.516 66.7355 33.516C66.1817 33.516 65.7146 33.7095 65.3342 34.0965C64.9539 34.4769 64.7637 34.9439 64.7637 35.4978C64.7637 36.0516 64.9539 36.522 65.3342 36.909ZM75.3777 32.9955V38H74.7171V34.0064L72.9655 36.849H72.8854L71.1339 34.0064V38H70.4733V32.9955H71.234L72.9255 35.738L74.617 32.9955H75.3777ZM80.9715 37.3694C80.4644 37.8699 79.8438 38.1201 79.1098 38.1201C78.3758 38.1201 77.7519 37.8699 77.2382 37.3694C76.731 36.8623 76.4775 36.2384 76.4775 35.4978C76.4775 34.7571 76.731 34.1365 77.2382 33.6361C77.7519 33.129 78.3758 32.8754 79.1098 32.8754C79.8438 32.8754 80.4644 33.129 80.9715 33.6361C81.4853 34.1365 81.7422 34.7571 81.7422 35.4978C81.7422 36.2384 81.4853 36.8623 80.9715 37.3694ZM77.7086 36.909C78.0889 37.2894 78.556 37.4795 79.1098 37.4795C79.6637 37.4795 80.1307 37.2894 80.5111 36.909C80.8914 36.522 81.0816 36.0516 81.0816 35.4978C81.0816 34.9439 80.8914 34.4769 80.5111 34.0965C80.1307 33.7095 79.6637 33.516 79.1098 33.516C78.556 33.516 78.0889 33.7095 77.7086 34.0965C77.3282 34.4769 77.1381 34.9439 77.1381 35.4978C77.1381 36.0516 77.3282 36.522 77.7086 36.909ZM86.0505 32.9955V33.6361H83.5082V38H82.8476V32.9955H86.0505ZM90.9635 32.9955H91.6241V38H90.9635V37.0191C90.5031 37.7531 89.8291 38.1201 88.9417 38.1201C88.2277 38.1201 87.6171 37.8665 87.11 37.3594C86.6096 36.8523 86.3593 36.2318 86.3593 35.4978C86.3593 34.7638 86.6096 34.1432 87.11 33.6361C87.6171 33.129 88.2277 32.8754 88.9417 32.8754C89.8291 32.8754 90.5031 33.2424 90.9635 33.9764V32.9955ZM87.5904 36.909C87.9708 37.2894 88.4379 37.4795 88.9917 37.4795C89.5455 37.4795 90.0126 37.2894 90.393 36.909C90.7733 36.522 90.9635 36.0516 90.9635 35.4978C90.9635 34.9439 90.7733 34.4769 90.393 34.0965C90.0126 33.7095 89.5455 33.516 88.9917 33.516C88.4379 33.516 87.9708 33.7095 87.5904 34.0965C87.2101 34.4769 87.0199 34.9439 87.0199 35.4978C87.0199 36.0516 87.2101 36.522 87.5904 36.909ZM97.857 38.1201C97.103 38.1201 96.4758 37.8699 95.9754 37.3694C95.4749 36.8623 95.2247 36.2384 95.2247 35.4978C95.2247 34.7571 95.4749 34.1365 95.9754 33.6361C96.4758 33.129 97.103 32.8754 97.857 32.8754C98.3508 32.8754 98.7945 32.9955 99.1882 33.2357C99.5819 33.4693 99.8688 33.7862 100.049 34.1866L99.5085 34.4969C99.3751 34.1966 99.1582 33.9597 98.8579 33.7862C98.5643 33.6061 98.2307 33.516 97.857 33.516C97.3032 33.516 96.8361 33.7095 96.4558 34.0965C96.0755 34.4769 95.8853 34.9439 95.8853 35.4978C95.8853 36.0516 96.0755 36.522 96.4558 36.909C96.8361 37.2894 97.3032 37.4795 97.857 37.4795C98.2307 37.4795 98.5643 37.3928 98.8579 37.2193C99.1515 37.0391 99.3817 36.7989 99.5486 36.4987L100.099 36.8189C99.8922 37.2193 99.5886 37.5363 99.1882 37.7698C98.7879 38.0033 98.3441 38.1201 97.857 38.1201ZM104.553 32.9955V33.6361H102.781V38H102.121V33.6361H100.349V32.9955H104.553ZM108.961 32.9955H109.662L107.52 38.4604C107.326 38.9542 107.049 39.3412 106.689 39.6214C106.336 39.9084 105.938 40.0352 105.498 40.0018V39.3812C106.099 39.448 106.556 39.101 106.869 38.3403L106.999 38.03L104.757 32.9955H105.458L107.34 37.1893L108.961 32.9955ZM114.361 37.3594H115.062V39.3412H114.401V38H110.317V39.3412H109.657V37.3594H110.267C110.608 36.9124 110.778 36.2818 110.778 35.4677V32.9955H114.361V37.3594ZM111.068 37.3594H113.7V33.6361H111.438V35.4677C111.438 36.2351 111.315 36.8657 111.068 37.3594ZM118.177 32.8754C118.918 32.8754 119.515 33.139 119.969 33.6661C120.429 34.1866 120.66 34.8038 120.66 35.5178C120.66 35.5912 120.653 35.6946 120.64 35.8281H116.246C116.312 36.3352 116.526 36.7389 116.886 37.0391C117.253 37.3327 117.704 37.4795 118.238 37.4795C118.618 37.4795 118.945 37.4028 119.218 37.2493C119.499 37.0892 119.709 36.8823 119.849 36.6288L120.429 36.9691C120.209 37.3227 119.909 37.603 119.529 37.8098C119.148 38.0167 118.715 38.1201 118.228 38.1201C117.44 38.1201 116.8 37.8732 116.306 37.3794C115.812 36.8857 115.565 36.2584 115.565 35.4978C115.565 34.7504 115.809 34.1265 116.296 33.6261C116.783 33.1256 117.41 32.8754 118.177 32.8754ZM118.177 33.516C117.657 33.516 117.22 33.6728 116.866 33.9864C116.519 34.2934 116.312 34.6937 116.246 35.1875H119.979C119.912 34.6603 119.709 34.25 119.369 33.9564C119.028 33.6628 118.631 33.516 118.177 33.516ZM125.254 32.9955H125.914V38H125.254V35.8181H122.371V38H121.71V32.9955H122.371V35.1775H125.254V32.9955ZM130.914 32.9955V33.6361H129.143V38H128.482V33.6361H126.711V32.9955H130.914ZM135.828 32.9955H136.488V38H135.828V37.0191C135.367 37.7531 134.693 38.1201 133.806 38.1201C133.092 38.1201 132.481 37.8665 131.974 37.3594C131.474 36.8523 131.224 36.2318 131.224 35.4978C131.224 34.7638 131.474 34.1432 131.974 33.6361C132.481 33.129 133.092 32.8754 133.806 32.8754C134.693 32.8754 135.367 33.2424 135.828 33.9764V32.9955ZM132.455 36.909C132.835 37.2894 133.302 37.4795 133.856 37.4795C134.41 37.4795 134.877 37.2894 135.257 36.909C135.638 36.522 135.828 36.0516 135.828 35.4978C135.828 34.9439 135.638 34.4769 135.257 34.0965C134.877 33.7095 134.41 33.516 133.856 33.516C133.302 33.516 132.835 33.7095 132.455 34.0965C132.074 34.4769 131.884 34.9439 131.884 35.4978C131.884 36.0516 132.074 36.522 132.455 36.909ZM142.791 32.9955V38H142.131V34.0064L140.379 36.849H140.299L138.548 34.0064V38H137.887V32.9955H138.648L140.339 35.738L142.031 32.9955H142.791Z"
    fill="#262626"
  />
</svg>
