<svg width="196" height="41" viewBox="0 0 196 41" fill="none" xmlns="http://www.w3.org/2000/svg">
  <rect y="3.24512" width="9.41177" height="34.5098" fill="#181818" />
  <rect x="14.3961" y="11.4021" width="9.41177" height="26.3529" fill="#181818" />
  <rect x="28.7923" y="3.24512" width="9.41177" height="34.5098" fill="#181818" />
  <path
    d="M49.3468 16.0756C49.627 16.5827 49.9407 17.0231 50.2876 17.3968C50.648 17.7704 51.035 18.0574 51.4487 18.2575C51.8757 18.4577 52.3228 18.5578 52.7899 18.5578C53.2836 18.5578 53.6907 18.4377 54.011 18.1975C54.3313 17.9439 54.4914 17.6036 54.4914 17.1766C54.4914 16.8163 54.398 16.5293 54.2111 16.3158C54.0243 16.0889 53.724 15.8754 53.3103 15.6752C52.8966 15.4751 52.3495 15.2482 51.6689 14.9946C51.3352 14.8745 50.9482 14.7077 50.5078 14.4942C50.0808 14.2807 49.6738 14.0071 49.2867 13.6735C48.8997 13.3265 48.5794 12.9128 48.3259 12.4323C48.0723 11.9386 47.9455 11.3447 47.9455 10.6508C47.9455 9.82335 48.1591 9.10938 48.5861 8.50884C49.0265 7.9083 49.6137 7.45457 50.3477 7.14762C51.095 6.82734 51.9224 6.6672 52.8299 6.6672C53.7641 6.6672 54.5715 6.82067 55.2521 7.12761C55.946 7.43455 56.5199 7.82156 56.9736 8.28864C57.4273 8.75573 57.7743 9.22948 58.0145 9.70991L55.4322 11.1512C55.2321 10.8176 54.9985 10.5306 54.7316 10.2904C54.478 10.0369 54.1911 9.84337 53.8708 9.70991C53.5639 9.56312 53.2303 9.48972 52.8699 9.48972C52.3895 9.48972 52.0225 9.59648 51.769 9.81C51.5154 10.0102 51.3886 10.2637 51.3886 10.5707C51.3886 10.891 51.5087 11.1712 51.7489 11.4114C52.0025 11.6516 52.3562 11.8718 52.8099 12.072C53.277 12.2722 53.8375 12.4857 54.4914 12.7126C54.9852 12.8994 55.4456 13.1196 55.8726 13.3732C56.2997 13.6134 56.6733 13.907 56.9936 14.254C57.3273 14.6009 57.5875 15.0013 57.7743 15.455C57.9612 15.9088 58.0546 16.4292 58.0546 17.0164C58.0546 17.7237 57.9078 18.3576 57.6142 18.9181C57.3339 19.4653 56.9469 19.9257 56.4531 20.2994C55.9727 20.673 55.4189 20.9533 54.7917 21.1401C54.1778 21.3403 53.5439 21.4404 52.89 21.4404C51.9825 21.4404 51.1351 21.2803 50.3477 20.96C49.5737 20.6263 48.8997 20.1793 48.3259 19.6188C47.752 19.0583 47.305 18.4444 46.9847 17.7771L49.3468 16.0756ZM58.9153 10.0102V6.98748H70.0053V10.0102H66.1418V21H62.7588V10.0102H58.9153ZM71.4375 6.98748H74.8205V16.1557C74.8205 16.863 75.0073 17.4368 75.381 17.8772C75.7547 18.3176 76.3152 18.5378 77.0625 18.5378C77.8232 18.5378 78.3903 18.3176 78.764 17.8772C79.1377 17.4368 79.3245 16.863 79.3245 16.1557V6.98748H82.7075V16.3959C82.7075 17.2767 82.5607 18.044 82.2671 18.6979C81.9869 19.3519 81.5865 19.8923 81.0661 20.3194C80.559 20.7331 79.9584 21.0467 79.2645 21.2602C78.5839 21.4738 77.8499 21.5805 77.0625 21.5805C76.2751 21.5805 75.5411 21.4738 74.8605 21.2602C74.1799 21.0467 73.5794 20.7331 73.0589 20.3194C72.5518 19.8923 72.1514 19.3519 71.8578 18.6979C71.5776 18.044 71.4375 17.2767 71.4375 16.3959V6.98748ZM85.5735 6.98748H89.0566V21H85.5735V6.98748ZM90.578 21H87.8155V17.9973H90.4579C90.9917 17.9973 91.5055 17.9306 91.9993 17.7971C92.5064 17.6637 92.9468 17.4435 93.3205 17.1365C93.7075 16.8296 94.0144 16.4226 94.2413 15.9155C94.4681 15.395 94.5816 14.7544 94.5816 13.9937C94.5816 13.2331 94.4681 12.5992 94.2413 12.092C94.0144 11.5716 93.7075 11.1579 93.3205 10.8509C92.9468 10.544 92.5064 10.3238 91.9993 10.1903C91.5055 10.0569 90.9917 9.99016 90.4579 9.99016H87.8155V6.98748H90.578C92.1127 6.98748 93.4406 7.2744 94.5616 7.84825C95.6826 8.4221 96.55 9.22948 97.1639 10.2704C97.7778 11.3113 98.0847 12.5525 98.0847 13.9937C98.0847 15.4217 97.7778 16.6628 97.1639 17.7171C96.55 18.758 95.6826 19.5654 94.5616 20.1392C93.4406 20.7131 92.1127 21 90.578 21ZM102.497 21V18.2175H109.563V21H102.497ZM102.497 9.76997V6.98748H109.563V9.76997H102.497ZM102.497 14.9946V12.2722H109.163V14.9946H102.497ZM100.255 6.98748H103.498V21H100.255V6.98748ZM121.985 6.98748H125.248V21.7006L115.559 13.113V21H112.316V6.28686L121.985 14.8745V6.98748ZM126.808 10.0102V6.98748H137.898V10.0102H134.034V21H130.651V10.0102H126.808ZM146.373 15.1348V12.092H156.982V15.1348H146.373ZM154.84 6.98748H158.223V21H154.84V6.98748ZM145.432 6.98748H148.815V21H145.432V6.98748ZM163.41 21V18.2175H170.477V21H163.41ZM163.41 9.76997V6.98748H170.477V9.76997H163.41ZM163.41 14.9946V12.2722H170.076V14.9946H163.41ZM161.168 6.98748H164.411V21H161.168V6.98748ZM173.23 6.98748H176.613V18.0974H182.238V21H173.23V6.98748ZM183.806 6.98748H187.189V21H183.806V6.98748ZM185.928 9.76997V6.98748H188.67C189.858 6.98748 190.852 7.17431 191.653 7.54798C192.467 7.9083 193.081 8.42877 193.494 9.10938C193.908 9.78998 194.115 10.6107 194.115 11.5716C194.115 12.5057 193.908 13.3198 193.494 14.0138C193.081 14.6944 192.467 15.2215 191.653 15.5952C190.852 15.9555 189.858 16.1357 188.67 16.1357H185.928V13.3532H188.67C189.351 13.3532 189.885 13.1997 190.272 12.8928C190.659 12.5858 190.852 12.1454 190.852 11.5716C190.852 10.9844 190.659 10.5373 190.272 10.2304C189.885 9.92344 189.351 9.76997 188.67 9.76997H185.928Z"
    fill="#181818"
  />
  <path
    d="M51.2285 37.3594H51.9291V39.3412H51.2685V38H47.1849V39.3412H46.5243V37.3594H47.1348C47.4751 36.9124 47.6453 36.2818 47.6453 35.4677V32.9955H51.2285V37.3594ZM47.9355 37.3594H50.5679V33.6361H48.3059V35.4677C48.3059 36.2351 48.1824 36.8657 47.9355 37.3594ZM56.9267 37.3694C56.4196 37.8699 55.799 38.1201 55.065 38.1201C54.331 38.1201 53.7072 37.8699 53.1934 37.3694C52.6862 36.8623 52.4327 36.2384 52.4327 35.4978C52.4327 34.7571 52.6862 34.1365 53.1934 33.6361C53.7072 33.129 54.331 32.8754 55.065 32.8754C55.799 32.8754 56.4196 33.129 56.9267 33.6361C57.4405 34.1365 57.6974 34.7571 57.6974 35.4978C57.6974 36.2384 57.4405 36.8623 56.9267 37.3694ZM53.6638 36.909C54.0441 37.2894 54.5112 37.4795 55.065 37.4795C55.6189 37.4795 56.0859 37.2894 56.4663 36.909C56.8466 36.522 57.0368 36.0516 57.0368 35.4978C57.0368 34.9439 56.8466 34.4769 56.4663 34.0965C56.0859 33.7095 55.6189 33.516 55.065 33.516C54.5112 33.516 54.0441 33.7095 53.6638 34.0965C53.2834 34.4769 53.0933 34.9439 53.0933 35.4978C53.0933 36.0516 53.2834 36.522 53.6638 36.909ZM63.0066 32.9955V38H62.346V33.6361H59.4634V38H58.8028V32.9955H63.0066ZM68.5973 37.3694C68.0902 37.8699 67.4696 38.1201 66.7356 38.1201C66.0016 38.1201 65.3777 37.8699 64.8639 37.3694C64.3568 36.8623 64.1033 36.2384 64.1033 35.4978C64.1033 34.7571 64.3568 34.1365 64.8639 33.6361C65.3777 33.129 66.0016 32.8754 66.7356 32.8754C67.4696 32.8754 68.0902 33.129 68.5973 33.6361C69.1111 34.1365 69.368 34.7571 69.368 35.4978C69.368 36.2384 69.1111 36.8623 68.5973 37.3694ZM65.3344 36.909C65.7147 37.2894 66.1818 37.4795 66.7356 37.4795C67.2894 37.4795 67.7565 37.2894 68.1369 36.909C68.5172 36.522 68.7074 36.0516 68.7074 35.4978C68.7074 34.9439 68.5172 34.4769 68.1369 34.0965C67.7565 33.7095 67.2894 33.516 66.7356 33.516C66.1818 33.516 65.7147 33.7095 65.3344 34.0965C64.954 34.4769 64.7639 34.9439 64.7639 35.4978C64.7639 36.0516 64.954 36.522 65.3344 36.909ZM75.3778 32.9955V38H74.7172V34.0064L72.9656 36.849H72.8856L71.134 34.0064V38H70.4734V32.9955H71.2341L72.9256 35.738L74.6171 32.9955H75.3778ZM80.9716 37.3694C80.4645 37.8699 79.8439 38.1201 79.1099 38.1201C78.376 38.1201 77.7521 37.8699 77.2383 37.3694C76.7312 36.8623 76.4776 36.2384 76.4776 35.4978C76.4776 34.7571 76.7312 34.1365 77.2383 33.6361C77.7521 33.129 78.376 32.8754 79.1099 32.8754C79.8439 32.8754 80.4645 33.129 80.9716 33.6361C81.4854 34.1365 81.7423 34.7571 81.7423 35.4978C81.7423 36.2384 81.4854 36.8623 80.9716 37.3694ZM77.7087 36.909C78.089 37.2894 78.5561 37.4795 79.1099 37.4795C79.6638 37.4795 80.1309 37.2894 80.5112 36.909C80.8915 36.522 81.0817 36.0516 81.0817 35.4978C81.0817 34.9439 80.8915 34.4769 80.5112 34.0965C80.1309 33.7095 79.6638 33.516 79.1099 33.516C78.5561 33.516 78.089 33.7095 77.7087 34.0965C77.3284 34.4769 77.1382 34.9439 77.1382 35.4978C77.1382 36.0516 77.3284 36.522 77.7087 36.909ZM86.0506 32.9955V33.6361H83.5083V38H82.8477V32.9955H86.0506ZM90.9636 32.9955H91.6242V38H90.9636V37.0191C90.5032 37.7531 89.8292 38.1201 88.9418 38.1201C88.2278 38.1201 87.6173 37.8665 87.1101 37.3594C86.6097 36.8523 86.3595 36.2318 86.3595 35.4978C86.3595 34.7638 86.6097 34.1432 87.1101 33.6361C87.6173 33.129 88.2278 32.8754 88.9418 32.8754C89.8292 32.8754 90.5032 33.2424 90.9636 33.9764V32.9955ZM87.5906 36.909C87.9709 37.2894 88.438 37.4795 88.9918 37.4795C89.5457 37.4795 90.0127 37.2894 90.3931 36.909C90.7734 36.522 90.9636 36.0516 90.9636 35.4978C90.9636 34.9439 90.7734 34.4769 90.3931 34.0965C90.0127 33.7095 89.5457 33.516 88.9918 33.516C88.438 33.516 87.9709 33.7095 87.5906 34.0965C87.2102 34.4769 87.0201 34.9439 87.0201 35.4978C87.0201 36.0516 87.2102 36.522 87.5906 36.909ZM97.8572 38.1201C97.1032 38.1201 96.4759 37.8699 95.9755 37.3694C95.475 36.8623 95.2248 36.2384 95.2248 35.4978C95.2248 34.7571 95.475 34.1365 95.9755 33.6361C96.4759 33.129 97.1032 32.8754 97.8572 32.8754C98.3509 32.8754 98.7947 32.9955 99.1884 33.2357C99.582 33.4693 99.869 33.7862 100.049 34.1866L99.5086 34.4969C99.3752 34.1966 99.1583 33.9597 98.8581 33.7862C98.5645 33.6061 98.2308 33.516 97.8572 33.516C97.3033 33.516 96.8363 33.7095 96.4559 34.0965C96.0756 34.4769 95.8854 34.9439 95.8854 35.4978C95.8854 36.0516 96.0756 36.522 96.4559 36.909C96.8363 37.2894 97.3033 37.4795 97.8572 37.4795C98.2308 37.4795 98.5645 37.3928 98.8581 37.2193C99.1517 37.0391 99.3819 36.7989 99.5487 36.4987L100.099 36.8189C99.8923 37.2193 99.5887 37.5363 99.1884 37.7698C98.788 38.0033 98.3443 38.1201 97.8572 38.1201ZM104.553 32.9955V33.6361H102.781V38H102.121V33.6361H100.349V32.9955H104.553ZM108.961 32.9955H109.662L107.52 38.4604C107.327 38.9542 107.05 39.3412 106.689 39.6214C106.336 39.9084 105.939 40.0352 105.498 40.0018V39.3812C106.099 39.448 106.556 39.101 106.869 38.3403L107 38.03L104.758 32.9955H105.458L107.34 37.1893L108.961 32.9955ZM114.361 37.3594H115.062V39.3412H114.401V38H110.317V39.3412H109.657V37.3594H110.267C110.608 36.9124 110.778 36.2818 110.778 35.4677V32.9955H114.361V37.3594ZM111.068 37.3594H113.7V33.6361H111.438V35.4677C111.438 36.2351 111.315 36.8657 111.068 37.3594ZM118.178 32.8754C118.918 32.8754 119.515 33.139 119.969 33.6661C120.43 34.1866 120.66 34.8038 120.66 35.5178C120.66 35.5912 120.653 35.6946 120.64 35.8281H116.246C116.313 36.3352 116.526 36.7389 116.886 37.0391C117.253 37.3327 117.704 37.4795 118.238 37.4795C118.618 37.4795 118.945 37.4028 119.219 37.2493C119.499 37.0892 119.709 36.8823 119.849 36.6288L120.43 36.9691C120.209 37.3227 119.909 37.603 119.529 37.8098C119.148 38.0167 118.715 38.1201 118.228 38.1201C117.44 38.1201 116.8 37.8732 116.306 37.3794C115.812 36.8857 115.565 36.2584 115.565 35.4978C115.565 34.7504 115.809 34.1265 116.296 33.6261C116.783 33.1256 117.41 32.8754 118.178 32.8754ZM118.178 33.516C117.657 33.516 117.22 33.6728 116.866 33.9864C116.519 34.2934 116.313 34.6937 116.246 35.1875H119.979C119.912 34.6603 119.709 34.25 119.369 33.9564C119.028 33.6628 118.631 33.516 118.178 33.516ZM125.254 32.9955H125.914V38H125.254V35.8181H122.371V38H121.711V32.9955H122.371V35.1775H125.254V32.9955ZM130.915 32.9955V33.6361H129.143V38H128.482V33.6361H126.711V32.9955H130.915ZM135.828 32.9955H136.488V38H135.828V37.0191C135.367 37.7531 134.694 38.1201 133.806 38.1201C133.092 38.1201 132.482 37.8665 131.974 37.3594C131.474 36.8523 131.224 36.2318 131.224 35.4978C131.224 34.7638 131.474 34.1432 131.974 33.6361C132.482 33.129 133.092 32.8754 133.806 32.8754C134.694 32.8754 135.367 33.2424 135.828 33.9764V32.9955ZM132.455 36.909C132.835 37.2894 133.302 37.4795 133.856 37.4795C134.41 37.4795 134.877 37.2894 135.257 36.909C135.638 36.522 135.828 36.0516 135.828 35.4978C135.828 34.9439 135.638 34.4769 135.257 34.0965C134.877 33.7095 134.41 33.516 133.856 33.516C133.302 33.516 132.835 33.7095 132.455 34.0965C132.075 34.4769 131.884 34.9439 131.884 35.4978C131.884 36.0516 132.075 36.522 132.455 36.909ZM142.792 32.9955V38H142.131V34.0064L140.379 36.849H140.299L138.548 34.0064V38H137.887V32.9955H138.648L140.339 35.738L142.031 32.9955H142.792Z"
    fill="#262626"
  />
</svg>